<?xml version="1.0" encoding="utf-8"?>
<!DOCTYPE svg PUBLIC "-//W3C//DTD SVG 1.0//EN" "http://www.w3.org/TR/2001/REC-SVG-20010904/DTD/svg10.dtd">
<svg version="1.0" xmlns="http://www.w3.org/2000/svg" width="600px" height="600px" viewBox="0 0 600 600" preserveAspectRatio="xMidYMid meet">
 <g fill="#990011" stroke="#990011" stroke-width="0.5">
  <path d="M284.75 566.55 c-3.55 -2.10 -7.95 -4.65 -9.75 -5.60 -6.20 -3.35 -10 -5.65 -10 -6.05 0 -0.20 0.80 -0.40 1.75 -0.40 1.40 0 1.75 0.20 1.75 1 0 0.80 0.35 1 1.75 1 1.20 0 1.75 0.25 1.75 0.75 0 0.45 0.45 0.75 1.25 0.75 0.70 0 1.25 0.25 1.25 0.50 0 0.30 0.35 0.50 0.75 0.50 1.25 0 3.25 1.15 3.25 1.85 0 0.35 0.55 0.65 1.25 0.65 0.80 0 1.25 0.30 1.25 0.75 0 0.40 0.45 0.75 0.95 0.75 1.50 0 2.55 0.55 2.55 1.30 0 0.40 0.50 0.70 1.25 0.70 0.80 0 1.25 0.30 1.25 0.75 0 0.45 0.45 0.75 1.25 0.75 0.80 0 1.25 0.30 1.25 0.75 0 0.40 0.45 0.75 0.95 0.75 1.65 0 2.55 0.55 2.55 1.55 0 1.60 -1.45 1.10 -8.25 -3z"/>
  <path d="M240.25 541.55 c-30.30 -16.90 -52.85 -29.55 -61.50 -34.40 -3.85 -2.15 -9.60 -5.40 -12.75 -7.15 -3.15 -1.75 -11.35 -6.35 -18.25 -10.25 -6.85 -3.90 -14.05 -7.95 -16 -9 -1.90 -1.05 -5.95 -3.30 -9 -5 -3 -1.75 -17.20 -9.65 -31.50 -17.60 -14.30 -8 -27.30 -15.20 -28.85 -16.10 l-2.90 -1.65 0 -138.90 0 -138.95 1.40 -0.95 c0.75 -0.50 3.35 -2 5.85 -3.35 2.50 -1.30 8.55 -4.70 13.50 -7.50 4.95 -2.80 10.15 -5.70 11.50 -6.50 3.25 -1.75 13.90 -7.75 23.75 -13.25 4.25 -2.40 9 -5 10.50 -5.85 5.35 -2.95 10.90 -6.10 25.75 -14.40 14.65 -8.20 21.45 -12 56.50 -31.60 9.35 -5.20 24.75 -13.85 34.25 -19.15 9.50 -5.30 21.55 -12 26.75 -14.90 5.25 -2.85 11.55 -6.40 14 -7.85 2.50 -1.45 5.45 -3.15 6.65 -3.80 l2.20 -1.20 1.80 1.05 c1 0.60 7.50 4.20 14.35 8.05 6.90 3.85 19.15 10.70 27.25 15.25 8.10 4.55 16.35 9.10 18.25 10.15 1.95 1.05 6.55 3.65 10.25 5.75 3.70 2.15 13.95 7.85 22.75 12.75 8.80 4.90 17.45 9.75 19.25 10.75 1.80 1.05 9.90 5.60 18 10.10 27.45 15.30 58.75 32.75 60.75 33.90 1.10 0.60 4.05 2.25 6.50 3.65 2.50 1.35 8.10 4.50 12.50 6.95 4.40 2.50 10.85 6.10 14.35 8.10 l6.35 3.55 0.05 139.10 c0 137.05 0 139.10 -0.95 139.65 -0.55 0.25 -1.05 0.50 -1.15 0.50 -0.10 0 -0.10 -62.50 0 -138.85 l0.10 -138.90 -2.30 -1.25 c-1.30 -0.65 -2.60 -1.45 -2.90 -1.75 -0.30 -0.25 -2.30 -1.40 -4.45 -2.50 -2.10 -1.10 -3.85 -2.30 -3.85 -2.60 0 -0.35 -0.50 -0.65 -1.10 -0.65 -0.95 0 -6.30 -2.65 -6.90 -3.45 -0.15 -0.20 -1.20 -0.75 -2.35 -1.25 -1.20 -0.55 -2.15 -1.15 -2.15 -1.40 0 -0.20 -0.25 -0.40 -0.55 -0.40 -0.85 0 -11.60 -5.95 -12.25 -6.80 -0.30 -0.40 -0.85 -0.70 -1.20 -0.70 -0.65 0 -15 -7.85 -15.50 -8.45 -0.15 -0.20 -1.20 -0.75 -2.35 -1.25 -1.20 -0.55 -2.15 -1.10 -2.15 -1.30 0 -0.15 -0.80 -0.60 -1.75 -0.95 -0.95 -0.35 -2.05 -0.90 -2.40 -1.20 -0.35 -0.35 -2.40 -1.50 -4.60 -2.60 -2.15 -1.10 -4.15 -2.20 -4.50 -2.50 -0.30 -0.25 -2.30 -1.40 -4.40 -2.45 -2.10 -1.10 -3.85 -2.30 -3.85 -2.65 0 -0.35 -0.45 -0.65 -1.05 -0.65 -0.90 0 -16.25 -8.15 -16.95 -9 -0.15 -0.15 -1 -0.60 -1.85 -0.95 -0.90 -0.40 -1.65 -0.80 -1.65 -1 0 -0.15 -1 -0.70 -2.25 -1.20 -1.25 -0.55 -2.25 -1.15 -2.25 -1.40 0 -0.25 -0.30 -0.45 -0.60 -0.45 -0.35 0 -5.25 -2.60 -10.90 -5.75 -5.65 -3.20 -14.80 -8.30 -20.35 -11.40 -5.60 -3.05 -10.15 -5.90 -10.15 -6.20 0 -0.35 -0.50 -0.65 -1.10 -0.65 -0.65 0 -2.15 -0.60 -3.40 -1.30 -1.25 -0.70 -8.30 -4.70 -15.75 -8.80 -7.40 -4.15 -13.55 -7.75 -13.65 -7.95 -0.10 -0.25 -0.40 -0.45 -0.70 -0.45 -0.75 0 -16.10 -8.55 -16.30 -9.10 -0.10 -0.20 -0.45 -0.40 -0.75 -0.40 -0.30 0 -7 -3.60 -14.90 -8.05 l-14.40 -8.05 -4.55 2.55 c-2.45 1.40 -4.70 2.55 -4.95 2.55 -0.25 0 -0.55 0.20 -0.65 0.40 -0.05 0.20 -7.70 4.60 -16.90 9.70 -9.20 5.10 -22.25 12.40 -29 16.15 -6.75 3.80 -14.15 7.95 -16.50 9.25 -4.05 2.25 -11.10 6.20 -44.50 24.90 -31.10 17.35 -36.95 20.60 -37.45 20.60 -0.30 0 -0.55 0.15 -0.55 0.40 0 0.20 -1.95 1.35 -4.40 2.60 -2.40 1.25 -4.45 2.40 -4.60 2.55 -0.15 0.15 -2.60 1.60 -5.50 3.20 -2.90 1.60 -9.80 5.45 -15.35 8.60 -5.55 3.10 -10.75 5.95 -11.50 6.25 -0.80 0.35 -1.50 0.75 -1.65 0.90 -0.30 0.30 -18.30 10.50 -26 14.75 -2.90 1.55 -5.55 3.10 -5.85 3.35 -0.50 0.40 -0.65 28.60 -0.65 137.95 l0 137.45 1.25 0.60 c0.70 0.30 1.25 0.70 1.25 0.90 0 0.15 0.80 0.60 1.75 0.95 0.95 0.35 1.75 0.85 1.75 1.10 0 0.25 0.25 0.45 0.60 0.45 1.10 0 11.90 6.25 11.90 6.90 0 0.30 0.45 0.60 1 0.60 1.10 0 3.50 1 3.50 1.50 0 0.15 0.80 0.60 1.75 0.95 0.95 0.35 2 0.90 2.35 1.20 0.35 0.35 1.60 1.05 2.80 1.55 1.15 0.55 2.10 1.10 2.10 1.30 0 0.15 0.80 0.60 1.75 0.95 0.95 0.35 2 0.90 2.35 1.20 0.35 0.35 1.65 1.05 2.85 1.60 1.20 0.55 2.45 1.20 2.75 1.50 0.35 0.25 2.15 1.30 4 2.25 1.90 0.95 3.70 2 4 2.25 0.30 0.30 1.50 0.95 2.70 1.45 1.15 0.55 2.10 1.10 2.10 1.30 0 0.15 0.80 0.60 1.75 0.95 0.95 0.35 2.05 0.90 2.40 1.20 0.35 0.35 2.10 1.35 3.90 2.30 1.75 0.95 3.30 1.85 3.45 2 0.15 0.20 1.20 0.75 2.40 1.25 1.15 0.55 2.10 1.15 2.10 1.40 0 0.20 0.45 0.40 1 0.40 0.55 0 1 0.20 1 0.40 0 0.20 0.80 0.70 1.75 1.05 0.95 0.35 1.75 0.80 1.75 1 0 0.20 0.80 0.65 1.75 1 0.95 0.35 1.75 0.80 1.75 1 0 0.20 0.80 0.65 1.75 1 0.95 0.35 1.75 0.80 1.75 1.05 0 0.20 0.55 0.55 1.25 0.70 0.70 0.20 1.25 0.65 1.25 1.05 0 0.45 0.45 0.75 1.05 0.75 1.45 0 16.90 8.60 16.95 9.40 0 0.30 0.45 0.60 1 0.60 1.10 0 3.50 1 3.50 1.50 0 0.15 0.80 0.60 1.75 0.95 0.95 0.35 1.75 0.80 1.75 1.05 0 0.20 0.55 0.55 1.25 0.70 0.70 0.20 1.25 0.65 1.25 1.05 0 0.40 0.45 0.75 1 0.75 1 0 5 1.80 5.50 2.45 0.15 0.20 1 0.65 1.90 1 0.85 0.40 1.60 0.85 1.60 1.05 0 0.20 0.55 0.55 1.20 0.70 0.70 0.15 1.55 0.60 1.90 0.95 0.40 0.30 2.45 1.50 4.55 2.60 2.10 1.10 3.85 2.25 3.85 2.60 0 0.35 0.45 0.65 1.05 0.65 1.40 0 7.95 3.60 7.95 4.40 0 0.30 0.45 0.60 1 0.60 1.20 0 3.50 1.05 3.50 1.60 0 0.20 0.30 0.40 0.60 0.40 0.60 0 11.40 5.85 11.90 6.45 0.15 0.15 2 1.20 4.15 2.30 2.10 1.10 3.85 2.10 3.85 2.25 0 0.15 0.80 0.60 1.75 0.95 0.95 0.35 2 0.90 2.35 1.20 0.35 0.35 1.60 1.05 2.80 1.55 1.15 0.55 2.10 1.10 2.10 1.30 0 0.15 0.80 0.60 1.75 0.95 0.95 0.35 2 0.90 2.35 1.20 0.35 0.35 1.60 1.05 2.80 1.55 1.15 0.55 2.10 1.25 2.10 1.65 0 0.35 0.45 0.65 0.95 0.65 1.50 0 2.55 0.55 2.55 1.30 0 0.40 0.45 0.70 1 0.70 1.60 0 3.50 1.10 3.50 2.10 0 0.70 0.40 0.90 1.75 0.90 1.40 0 1.75 0.20 1.75 1 0 0.80 0.35 1 1.75 1 1.55 0 1.75 0.15 1.75 1.25 0 0.70 -0.15 1.25 -0.35 1.20 -0.25 0 -10.75 -5.80 -23.40 -12.90z"/>
  <path d="M300 420.90 l0 -123.65 10.65 -5.95 c5.80 -3.30 14.10 -7.95 18.35 -10.35 20.10 -11.25 34.10 -19.10 43.25 -24.20 5.50 -3.05 12.95 -7.25 16.50 -9.25 3.60 -2 11.35 -6.35 17.25 -9.65 5.90 -3.30 13 -7.25 15.75 -8.85 2.75 -1.60 11.10 -6.25 18.50 -10.35 14 -7.80 33.65 -18.80 52.40 -29.45 8.15 -4.65 11.35 -6.20 12.65 -6.20 l1.70 0 0 123.50 0 123.55 -2.10 1.25 c-1.20 0.70 -8.65 4.95 -16.65 9.40 -7.95 4.50 -23.85 13.40 -35.25 19.80 -19.35 10.90 -43.85 24.60 -60.25 33.75 -3.85 2.15 -11.25 6.35 -16.50 9.30 -5.20 2.90 -13.55 7.55 -18.50 10.30 -16.85 9.30 -32 17.75 -43.35 24.20 -7.70 4.40 -11.80 6.45 -12.85 6.45 l-1.55 0 0 -123.60z m28.50 85 c2.90 -1.65 5.55 -3.20 5.90 -3.50 0.45 -0.40 0.60 -5.15 0.60 -20.60 l0 -20.10 9.65 -5.45 c5.25 -2.95 15.70 -8.85 23.20 -13.10 10.50 -5.90 13.95 -7.65 15.35 -7.65 l1.80 0 0.10 19.25 0.15 19.20 7.40 -4.05 7.35 -4.05 0 -29.25 0 -29.20 -1.60 1 c-1.55 0.95 -9.65 5.50 -24.15 13.60 -8.80 4.90 -23.55 13.20 -39.85 22.50 l-14.40 8.15 0 28.95 0 28.95 1.65 -0.85 c0.85 -0.45 3.95 -2.20 6.85 -3.80z m97.40 -54.60 c10.40 -5.90 38.35 -21.65 41.35 -23.30 1.40 -0.75 6.40 -3.55 11.15 -6.20 l8.60 -4.90 0 -49.45 0 -49.45 -1.10 0.70 c-0.65 0.40 -10.80 6.10 -22.65 12.70 -32.30 18 -43.95 24.55 -44.65 25.30 -0.45 0.45 -0.60 2.70 -0.50 8.95 l0.15 8.30 17 -9.50 c9.35 -5.25 20.60 -11.50 24.95 -14 6.20 -3.45 8.40 -4.45 9.90 -4.45 l1.90 0 -0.10 31.05 -0.15 31 -17.75 10 c-13.85 7.80 -18.10 9.95 -19.25 9.85 l-1.50 -0.15 -0.15 -10.60 -0.10 -10.60 10.75 -6.10 10.75 -6.10 0 -8.70 c0 -4.80 -0.15 -8.60 -0.35 -8.50 -0.25 0.10 -4.10 2.30 -8.65 4.85 -7 3.95 -13.30 7.50 -25.35 14.35 l-2.15 1.20 0 28.95 c0 15.95 0.10 29 0.25 29 0.15 0 3.55 -1.90 7.65 -4.20z m-83.55 -34.60 c37.70 -21.20 53.85 -30.35 55.80 -31.55 l1.85 -1.15 0 -8.50 c0 -4.70 -0.10 -8.50 -0.20 -8.50 -0.20 0 -18 9.90 -30.55 17 -5.50 3.10 -11.70 6.60 -13.75 7.75 -7.05 3.95 -23.25 13.10 -29.35 16.55 l-6.15 3.45 0 8.65 c0 4.70 0.10 8.60 0.25 8.60 0.10 0 10.05 -5.55 22.10 -12.30z m-15.30 -32.50 c3.70 -2.10 7 -4 7.30 -4.30 0.50 -0.40 0.65 -7.35 0.75 -30.55 l0.15 -30 6.70 -3.90 c5.20 -3.05 7.15 -3.95 8.65 -3.95 l1.90 0 0.10 29.20 0.15 29.25 14.25 -8.10 c7.85 -4.50 18.45 -10.50 23.65 -13.35 l9.35 -5.25 0 -38.85 0 -38.85 -4.10 2.40 c-2.30 1.35 -5.65 3.25 -7.50 4.25 l-3.40 1.85 0 30.15 0 30.10 -4.10 2.20 c-2.30 1.20 -5.40 2.95 -6.90 3.85 -1.80 1.10 -3.40 1.65 -4.60 1.65 l-1.90 0 -0.10 -28.95 -0.15 -28.95 -5 2.75 c-5.05 2.75 -18.40 10.25 -33.85 19.05 l-8.40 4.70 0 38.70 c0 21.30 0.10 38.70 0.20 38.70 0.10 0 3.20 -1.70 6.85 -3.80z m98.75 -55.30 l7.20 -4.10 0 -9.60 c0 -7.05 0.15 -9.70 0.65 -10.10 0.30 -0.30 5.35 -3.15 11.10 -6.35 5.80 -3.25 13.40 -7.55 16.90 -9.55 5 -2.85 6.90 -3.70 8.40 -3.70 l1.95 0 0 8.75 c0 4.80 0.15 8.75 0.30 8.75 0.55 0 13.95 -7.70 14.30 -8.25 0.50 -0.70 0.50 -77.90 0 -77.65 -0.20 0.10 -3 1.60 -6.15 3.35 -3.10 1.80 -13.90 7.85 -23.95 13.45 -10.05 5.60 -22.80 12.80 -28.35 15.95 l-10.15 5.75 0 38.70 c0 21.30 0.15 38.70 0.30 38.70 0.20 0 3.55 -1.85 7.50 -4.10z"/>
  <path d="M433 275.30 l0 -10.65 8.90 -5.05 c25.85 -14.60 26.75 -15.10 28.40 -15.10 l1.70 0 0 10.70 0 10.70 -3.10 1.75 c-1.75 0.95 -9 5.05 -16.15 9.10 -7.15 4.05 -13.75 7.80 -14.65 8.30 -0.90 0.55 -2.40 0.95 -3.35 0.95 l-1.75 0 0 -10.70z"/>
  <path d="M266.75 536.55 c-14.50 -8.25 -30.55 -17.25 -40.75 -22.95 -3.70 -2.05 -11.35 -6.35 -17 -9.50 -5.65 -3.20 -13.05 -7.35 -16.50 -9.25 -8.35 -4.60 -18.40 -10.25 -25.75 -14.35 -3.30 -1.85 -10.70 -6 -16.50 -9.25 -12.55 -7.05 -33.80 -18.95 -53 -29.75 -7.70 -4.35 -15.25 -8.50 -16.75 -9.25 -1.50 -0.75 -2.90 -1.65 -3.10 -1.95 -0.20 -0.30 -0.40 -56.05 -0.40 -123.90 l0 -123.40 1.50 0 c1.90 0 2.40 0.25 20.50 10.45 8.10 4.60 19.15 10.80 24.50 13.80 5.35 3 13.25 7.40 17.50 9.80 4.25 2.35 16.10 9 26.25 14.70 10.20 5.75 21.90 12.30 26 14.65 4.15 2.35 16.05 9 26.50 14.85 10.45 5.80 23.75 13.25 29.50 16.50 5.80 3.25 12.20 6.85 14.25 8 2.05 1.15 7.50 4.20 12.15 6.80 l8.35 4.70 0 123.35 0 123.40 -2.10 -0.05 c-1.80 -0.05 -4.30 -1.25 -15.15 -7.40z m-2.75 -75.40 l0 -49.40 -7.05 -4 c-3.90 -2.20 -7.25 -4.05 -7.50 -4.15 -0.25 -0.10 -0.45 8.30 -0.45 19.10 l0 19.30 -1.65 0 c-1.20 0 -4.10 -1.40 -10.15 -4.85 -4.65 -2.65 -11.20 -6.35 -14.55 -8.20 l-6.15 -3.40 0 8.70 0 8.70 13.15 7.45 c7.20 4.10 14.50 8.20 16.20 9.15 l3.15 1.70 0 10.90 0 10.85 -1.55 0 c-0.85 0 -2.95 -0.85 -4.85 -1.95 -5.40 -3.10 -22.70 -12.85 -24.45 -13.75 l-1.65 -0.85 0 8.45 c0 7.40 0.10 8.55 0.90 9.20 0.45 0.45 8.50 5.05 17.85 10.30 9.35 5.25 19.60 11 22.75 12.80 3.15 1.80 5.80 3.30 5.90 3.30 0.05 0 0.10 -22.20 0.10 -49.35z m-63.20 -66.65 c1.35 0 4.65 1.65 14.35 7.20 6.95 3.95 13.55 7.65 14.75 8.25 l2.10 1.05 0 -8.60 c0 -8.45 -0.05 -8.70 -1.10 -9.35 -1.05 -0.65 -10.05 -5.75 -21.65 -12.15 -2.45 -1.40 -5.95 -3.35 -7.75 -4.40 -4.05 -2.35 -17.10 -9.50 -17.30 -9.50 -0.10 0 -0.20 22.25 -0.20 49.40 l0 49.45 7.40 4.05 7.35 4.05 0.15 -39.70 0.10 -39.75 1.80 0z m-34.80 31.90 l-0.05 -29.15 -12.60 -7.05 c-6.95 -3.90 -14.95 -8.40 -17.85 -10 -2.90 -1.65 -5.40 -3 -5.60 -3.10 -0.25 -0.10 -0.40 3.70 -0.40 8.50 l0 8.65 10.25 5.90 c5.65 3.20 10.50 5.85 10.75 5.85 0.30 0 0.50 4.15 0.50 10.75 l0 10.75 -1.75 0 c-1.90 0 -4.40 -1.10 -10.85 -4.95 -2.30 -1.35 -8.40 -4.80 -13.65 -7.70 -5.20 -2.85 -13.55 -7.50 -18.45 -10.30 -4.95 -2.75 -9.05 -5.05 -9.15 -5.05 -0.05 0 -0.15 3.90 -0.15 8.70 l0 8.70 7.10 4 c3.95 2.15 10.85 6.05 15.40 8.60 4.55 2.55 15 8.40 23.25 13 8.25 4.65 16.80 9.45 19 10.70 2.20 1.25 4.05 2.30 4.15 2.30 0.05 0 0.10 -13.10 0.10 -29.10z m98 -77.15 l0 -38.70 -3.10 -1.85 c-4.80 -2.80 -43.95 -24.70 -44.25 -24.70 -0.05 0 -0.15 3.80 -0.15 8.45 l0 8.50 1.40 0.95 c0.75 0.50 7.65 4.50 15.35 8.85 7.70 4.35 14.40 8.15 14.90 8.45 0.80 0.50 0.85 2.05 0.85 20.65 l0 20.15 -1.80 0 c-1.25 0 -3.20 -0.75 -6.15 -2.45 -2.35 -1.30 -7.90 -4.40 -12.30 -6.80 -4.40 -2.45 -10.60 -5.90 -13.75 -7.75 -3.15 -1.85 -7.90 -4.55 -10.50 -6 -2.60 -1.45 -4.85 -2.70 -5 -2.85 -0.15 -0.15 -0.35 -13.75 -0.50 -30.25 l-0.25 -30 -7 -3.95 c-3.85 -2.15 -7.15 -3.95 -7.40 -3.95 -0.20 0 -0.30 17.40 -0.25 38.65 l0.15 38.60 7 3.95 c15.30 8.60 23.10 13 37.50 21.05 8.25 4.65 19.50 10.95 25 14.10 5.50 3.10 10.05 5.65 10.10 5.65 0.10 0 0.15 -17.45 0.15 -38.75z m-150.40 -3.75 c1 0 3.50 1.10 7.10 3.20 3.05 1.75 8.80 5 12.80 7.20 8.50 4.65 27.30 15.15 30.40 16.95 l2.10 1.25 0 -8.75 0 -8.80 -5.10 -2.85 c-2.85 -1.55 -11.45 -6.35 -19.15 -10.70 -7.70 -4.30 -17.55 -9.85 -21.85 -12.25 l-7.90 -4.35 0 -10.95 0 -10.95 1.65 0 c0.85 0 2.40 0.50 3.35 1.05 0.95 0.60 9.40 5.35 18.75 10.60 9.35 5.20 19.90 11.15 23.40 13.15 3.55 2.05 6.55 3.70 6.65 3.70 0.10 0 0.20 -17.40 0.20 -38.60 l0 -38.65 -1.40 -0.80 c-5.05 -3 -23.20 -13.30 -32.85 -18.70 -19.75 -11.10 -34.45 -19.25 -34.60 -19.25 -0.10 0 -0.15 35.75 -0.15 79.50 l0 79.45 1.90 1.05 c1 0.60 4.35 2.45 7.35 4.20 l5.50 3.10 0.15 -19.40 0.10 -19.40 1.60 0z"/>
  <path d="M140.75 301.55 c-3.85 -2.15 -10.35 -5.75 -14.50 -8.05 -4.10 -2.25 -9 -5.05 -10.85 -6.15 l-3.40 -1.95 0 -20.45 0 -20.45 1.75 0 c1.70 0 8.50 3.65 32.90 17.60 l4.35 2.50 0 20.45 0 20.45 -1.60 -0.05 c-1.10 0 -4.10 -1.35 -8.65 -3.90z"/>
  <path d="M289.50 282.85 c-0.70 -0.35 -3.60 -2.05 -6.50 -3.70 -2.90 -1.65 -8.05 -4.55 -11.50 -6.40 -3.45 -1.90 -11.10 -6.15 -17 -9.50 -5.90 -3.35 -13 -7.35 -15.75 -8.85 -12.65 -7 -31.90 -17.75 -36 -20.15 -2.45 -1.45 -8.90 -5.05 -14.25 -8 -5.35 -2.95 -13.55 -7.55 -18.25 -10.25 -4.65 -2.65 -10.85 -6.15 -13.75 -7.75 -2.90 -1.60 -9.30 -5.20 -14.25 -8 -4.95 -2.85 -12.50 -7.05 -16.75 -9.35 -4.25 -2.35 -12.90 -7.15 -19.25 -10.75 -6.30 -3.55 -13.05 -7.30 -14.90 -8.35 -3.35 -1.85 -3.40 -1.90 -3.25 -3.70 0.15 -1.85 0.15 -1.85 9.90 -7.30 5.35 -2.95 14.50 -8.05 20.25 -11.25 5.80 -3.25 14.10 -7.85 18.50 -10.30 4.40 -2.40 11.05 -6.15 14.75 -8.25 3.70 -2.15 12.85 -7.25 20.25 -11.40 7.45 -4.10 18 -10 23.50 -13.10 17.25 -9.70 34.45 -19.35 50.25 -28.15 8.40 -4.65 17.75 -9.85 20.75 -11.60 21.60 -12.20 23.65 -13.25 25.80 -13.25 2.35 0 1.55 -0.40 31.70 16.50 14.55 8.20 34.65 19.45 53.50 30 6.05 3.40 15.30 8.55 20.50 11.50 10.85 6.10 19.05 10.70 32.25 18 5.10 2.85 12.50 7 16.50 9.25 4 2.25 16.75 9.35 28.40 15.80 l21.15 11.70 -0.15 1.95 c-0.15 1.90 -0.25 2 -5.15 4.70 -2.75 1.50 -9.40 5.20 -14.75 8.25 -5.35 3 -13 7.30 -17 9.50 -4 2.20 -13.30 7.40 -20.75 11.60 -7.40 4.20 -18.20 10.25 -24 13.50 -5.75 3.20 -12.75 7.15 -15.50 8.75 -2.75 1.55 -6.55 3.70 -8.50 4.75 -1.90 1.05 -7.65 4.25 -12.70 7.10 -5.05 2.90 -17.95 10.15 -28.75 16.15 -10.75 6 -22.25 12.40 -25.55 14.25 -20.55 11.60 -30.15 16.75 -31.25 16.75 -0.70 0 -1.80 -0.30 -2.50 -0.65z"/>
 </g>
 <g fill="#2c2c2e">
  <path d="M283.25 565.55 c-4.70 -2.70 -16.15 -9.20 -25.50 -14.40 -9.35 -5.25 -23.40 -13.10 -31.25 -17.50 -7.85 -4.40 -18.40 -10.30 -23.50 -13.15 -10.65 -5.90 -23.55 -13.15 -29.05 -16.25 -2.05 -1.20 -9.60 -5.40 -16.75 -9.40 -7.10 -4 -15.75 -8.85 -19.10 -10.80 -3.40 -1.95 -6.25 -3.55 -6.35 -3.55 -0.10 0 -3.30 -1.75 -7.10 -3.90 -3.80 -2.20 -17 -9.60 -29.40 -16.45 -12.35 -6.90 -25.30 -14.10 -28.75 -16.05 l-6.25 -3.50 -0.15 -139.05 -0.10 -139.05 1.85 -1.15 c1.05 -0.65 3.90 -2.25 6.40 -3.60 2.50 -1.30 7.55 -4.15 11.25 -6.25 3.70 -2.15 11.60 -6.55 17.50 -9.85 5.90 -3.30 17.40 -9.75 25.50 -14.25 36.45 -20.40 45.40 -25.40 55.25 -30.90 5.80 -3.25 16.25 -9.10 23.25 -13 7 -3.95 14.65 -8.20 17 -9.50 2.35 -1.30 10 -5.60 17 -9.50 7 -3.95 20.65 -11.55 30.25 -16.90 9.65 -5.40 19.65 -10.95 22.25 -12.40 l4.70 -2.65 1.55 0.90 c1.45 0.90 43.35 24.35 60.75 34.05 4.80 2.65 12.45 6.95 17 9.50 4.55 2.55 14.10 7.90 21.25 11.90 7.15 4 21.65 12.10 32.25 18 10.60 5.90 25 13.95 32 17.85 7 3.90 16.45 9.20 21 11.75 4.55 2.55 12.20 6.80 17 9.50 4.80 2.65 12.45 6.95 17 9.50 4.55 2.55 9.10 5.15 10.10 5.70 l1.90 1.05 0 139.10 0 139.15 -1.95 1.20 c-1.05 0.65 -3.90 2.35 -6.35 3.70 -2.45 1.35 -9.15 5.15 -14.95 8.35 -5.75 3.25 -13.40 7.50 -17 9.50 -3.55 1.95 -11.90 6.60 -18.50 10.35 -6.60 3.70 -15.05 8.45 -18.75 10.50 -11.25 6.25 -40.75 22.75 -49 27.40 -7.70 4.35 -11.15 6.30 -39.75 22.25 -38.20 21.35 -53.95 30.20 -59.45 33.35 -3.25 1.85 -6.10 3.40 -6.25 3.40 -0.20 0 -4.15 -2.20 -8.80 -4.95z m31.25 -29.90 c10.05 -5.70 26.05 -14.60 41.75 -23.30 4.95 -2.75 13.30 -7.40 18.50 -10.30 5.25 -2.95 12.65 -7.15 16.50 -9.30 16.40 -9.15 40.90 -22.85 60.25 -33.75 11.40 -6.40 27.30 -15.30 35.25 -19.80 8 -4.45 15.45 -8.70 16.65 -9.40 l2.10 -1.25 0 -122.05 c0 -67.10 -0.10 -122 -0.20 -122 -0.15 0 -5.15 2.80 -11.15 6.20 -18.75 10.65 -38.40 21.65 -52.40 29.45 -7.40 4.10 -15.75 8.75 -18.50 10.35 -2.75 1.60 -9.85 5.55 -15.75 8.85 -5.90 3.30 -13.65 7.65 -17.25 9.65 -3.55 2 -11 6.20 -16.50 9.25 -9.15 5.10 -23.15 12.95 -43.25 24.20 -4.25 2.40 -12.55 7.05 -18.35 10.35 l-10.65 5.95 0 122.15 0 122.20 1.65 -1 c0.85 -0.50 6 -3.45 11.35 -6.45z m-32 -115.05 l0 -121.85 -8.35 -4.70 c-4.65 -2.60 -10.10 -5.65 -12.15 -6.80 -2.05 -1.15 -8.45 -4.75 -14.25 -8 -5.75 -3.25 -19.05 -10.70 -29.50 -16.50 -10.45 -5.85 -22.35 -12.50 -26.50 -14.85 -4.10 -2.35 -15.80 -8.90 -26 -14.65 -10.15 -5.70 -22 -12.35 -26.25 -14.70 -4.25 -2.40 -12.15 -6.80 -17.50 -9.80 -5.35 -3 -16.40 -9.20 -24.50 -13.80 -8.10 -4.55 -15.70 -8.80 -16.90 -9.40 l-2.10 -1.05 0 121.85 c0 67.05 0.20 122.15 0.40 122.45 0.20 0.30 1.60 1.20 3.10 1.95 1.50 0.75 9.05 4.90 16.75 9.25 19.20 10.80 40.45 22.70 53 29.75 5.80 3.25 13.20 7.40 16.50 9.25 7.35 4.10 17.40 9.75 25.75 14.35 3.45 1.90 10.85 6.05 16.50 9.25 5.65 3.15 13.30 7.45 17 9.50 10.20 5.70 26.25 14.70 40.75 22.95 7.15 4.05 13.30 7.40 13.65 7.40 0.45 0.05 0.60 -24.65 0.60 -121.85z m39.25 -155.35 c3.30 -1.85 14.80 -8.25 25.55 -14.25 10.80 -6 23.70 -13.25 28.75 -16.15 5.05 -2.85 10.80 -6.05 12.70 -7.10 1.95 -1.05 5.75 -3.20 8.50 -4.75 2.75 -1.60 9.75 -5.55 15.50 -8.75 5.80 -3.25 16.60 -9.30 24 -13.50 7.45 -4.20 16.75 -9.40 20.75 -11.60 4 -2.20 11.65 -6.50 17 -9.50 5.35 -3.05 12 -6.75 14.70 -8.25 2.75 -1.50 5.05 -2.95 5.15 -3.20 0.10 -0.25 -9.35 -5.70 -21 -12.15 -11.60 -6.45 -24.35 -13.55 -28.35 -15.80 -4 -2.25 -11.40 -6.40 -16.50 -9.25 -13.20 -7.30 -21.40 -11.90 -32.25 -18 -5.20 -2.95 -14.45 -8.10 -20.50 -11.50 -18.85 -10.55 -38.95 -21.80 -53.50 -30 -25.30 -14.20 -29.50 -16.50 -30.20 -16.50 -0.55 0 -8.60 4.40 -24.30 13.25 -3 1.75 -12.35 6.95 -20.75 11.60 -15.80 8.80 -33 18.45 -50.25 28.15 -5.50 3.10 -16.05 9 -23.50 13.10 -7.40 4.15 -16.55 9.25 -20.25 11.40 -3.70 2.10 -10.35 5.85 -14.75 8.25 -4.40 2.40 -12.50 6.95 -18 10 -5.50 3.10 -14.55 8.15 -20.10 11.20 -5.60 3.10 -10.25 5.80 -10.40 6.05 -0.15 0.25 1.25 1.30 3.10 2.30 1.90 1.05 8.60 4.80 14.90 8.35 6.35 3.60 15 8.40 19.25 10.75 4.25 2.30 11.80 6.50 16.75 9.35 4.95 2.80 11.35 6.40 14.25 8 2.90 1.60 9.10 5.10 13.75 7.75 4.70 2.70 12.90 7.30 18.25 10.25 5.35 2.95 11.80 6.55 14.25 8 4.10 2.40 23.35 13.15 36 20.15 2.75 1.50 9.85 5.50 15.75 8.85 5.90 3.35 13.55 7.60 17 9.50 3.45 1.85 8.60 4.75 11.50 6.40 2.90 1.65 5.75 3.30 6.40 3.60 1.15 0.65 4.50 -1.10 30.85 -16z"/>
  <path d="M318.50 482.30 l0 -31.15 14.40 -8.15 c16.30 -9.30 31.05 -17.60 39.85 -22.50 3.30 -1.85 9.70 -5.45 14.25 -8 4.55 -2.55 9.65 -5.40 11.40 -6.35 l3.10 -1.75 0 31.45 0 31.50 -8.75 4.80 c-4.80 2.65 -8.85 4.85 -9 4.85 -0.15 0 -0.25 -9 -0.25 -20 0 -11 -0.15 -20 -0.30 -20 -0.15 0 -6.40 3.45 -13.85 7.65 -7.50 4.25 -17.95 10.15 -23.20 13.10 l-9.65 5.45 0 20.10 0 20.15 -1.35 0.95 c-1.75 1.20 -15.95 9.10 -16.35 9.10 -0.15 0 -0.30 -14.05 -0.30 -31.20z"/>
  <path d="M416.50 427.25 l0 -31.20 2.15 -1.20 c3.20 -1.85 17.05 -9.70 26.85 -15.20 4.80 -2.75 9.15 -5.10 9.65 -5.30 0.80 -0.30 0.85 0.40 0.85 10.60 l0 10.90 -10.75 6.10 -10.75 6.10 0 8.90 c0 4.90 0.10 9 0.25 9.15 0.15 0.15 8.20 -4.20 17.90 -9.65 l17.60 -9.90 0.15 -29.50 c0.05 -16.60 -0.10 -29.55 -0.35 -29.55 -0.20 0 -3.55 1.75 -7.35 3.90 -3.85 2.15 -11.10 6.25 -16.20 9.10 -5.10 2.85 -13.80 7.70 -19.35 10.85 -5.55 3.10 -10.20 5.65 -10.35 5.65 -0.15 0 -0.30 -4.80 -0.30 -10.70 l0 -10.75 1.40 -0.95 c0.75 -0.50 5.30 -3.15 10.10 -5.85 4.80 -2.65 12.25 -6.85 16.50 -9.25 20.10 -11.35 43 -24 43.50 -24 0.35 0 0.50 16 0.50 51.45 l0 51.45 -8.60 4.90 c-4.75 2.65 -9.75 5.45 -11.15 6.20 -3.30 1.80 -31.65 17.80 -42.70 24.05 -4.75 2.75 -8.85 4.95 -9.10 4.95 -0.25 0 -0.45 -13.50 -0.45 -31.25z"/>
  <path d="M318.50 421.45 l0 -11.20 6.15 -3.45 c6.20 -3.55 22.60 -12.75 29.35 -16.55 2.05 -1.15 9.05 -5.05 15.50 -8.75 6.45 -3.65 15.75 -8.85 20.60 -11.55 4.90 -2.70 9.45 -5.30 10.15 -5.75 l1.25 -0.80 0 11.05 0 11.05 -1.85 1.15 c-2 1.25 -19.80 11.30 -56.40 31.85 -12.35 6.95 -23 13 -23.60 13.40 l-1.15 0.70 0 -11.15z"/>
  <path d="M318.50 350.05 l0 -40.95 6.65 -3.75 c3.60 -2.05 10.90 -6.15 16.10 -9.10 5.25 -2.95 12.75 -7.20 16.75 -9.40 4 -2.15 7.85 -4.40 8.60 -4.90 0.70 -0.55 1.55 -0.95 1.85 -0.95 0.40 0 0.55 8.50 0.55 29.75 0 16.35 0.15 29.75 0.40 29.75 0.20 0 1.60 -0.75 3.10 -1.65 1.50 -0.90 4.60 -2.65 6.90 -3.85 l4.10 -2.20 0 -30.10 0 -30.15 3.40 -1.85 c1.85 -1 5.80 -3.25 8.75 -5 3 -1.75 5.50 -3.20 5.65 -3.20 0.10 0 0.20 18.50 0.20 41.15 l0 41.10 -8.85 4.95 c-4.90 2.75 -16.15 9.10 -25 14.15 -8.90 5.05 -16.30 9.15 -16.50 9.15 -0.25 0 -0.35 -13.50 -0.25 -30 0.05 -16.50 -0.05 -30 -0.30 -30 -0.25 0 -3.45 1.75 -7.15 3.95 l-6.70 3.90 -0.15 30.05 -0.10 30.05 -1.40 0.95 c-1.85 1.25 -15.85 9.10 -16.25 9.10 -0.20 0 -0.35 -18.45 -0.35 -40.95z"/>
  <path d="M416.50 295.05 l0 -40.95 10.15 -5.75 c5.55 -3.15 18.45 -10.40 28.60 -16.10 10.20 -5.70 21.65 -12.15 25.55 -14.30 3.85 -2.15 7.15 -3.95 7.35 -3.95 0.45 0 0.45 81.60 -0.05 82.25 -0.45 0.65 -16.40 9.75 -17.10 9.75 -0.30 0 -0.50 -3.50 -0.50 -9.50 0 -5.35 -0.20 -9.50 -0.45 -9.50 -0.25 0 -3.35 1.65 -6.90 3.70 -3.50 2 -11.10 6.30 -16.90 9.55 -5.75 3.20 -10.80 6.05 -11.10 6.35 -0.50 0.40 -0.65 3.05 -0.65 10.10 l0 9.60 -8.55 4.85 c-4.70 2.65 -8.75 4.85 -9 4.85 -0.25 0 -0.45 -16.10 -0.45 -40.95z m20.10 -11.50 c0.90 -0.50 7.50 -4.25 14.65 -8.30 7.15 -4.05 14.40 -8.15 16.15 -9.10 l3.10 -1.75 0 -9.20 c0 -5.05 -0.10 -9.20 -0.20 -9.20 -0.15 0 -7.60 4.15 -26.90 15.10 l-8.90 5.05 0 9.15 c0 5.05 0.10 9.20 0.25 9.20 0.10 0 0.95 -0.40 1.85 -0.95z"/>
  <path d="M257.75 509.40 c-3.85 -2.20 -14.65 -8.25 -24 -13.50 -9.35 -5.25 -17.40 -9.85 -17.85 -10.30 -0.80 -0.65 -0.90 -1.90 -0.90 -11.45 0 -8.40 0.15 -10.65 0.65 -10.65 0.35 0 0.85 0.20 1.15 0.45 0.45 0.45 7.25 4.35 21.70 12.40 3.70 2.10 7.25 4.10 7.85 4.50 l1.15 0.75 0 -9.40 0 -9.45 -3.15 -1.70 c-1.70 -0.95 -9 -5.05 -16.20 -9.15 l-13.15 -7.45 0 -10.65 c0 -5.85 0.15 -10.80 0.35 -10.95 0.15 -0.20 0.55 -0.15 0.85 0.10 0.30 0.25 4.60 2.70 9.55 5.45 4.95 2.75 11.80 6.60 15.20 8.55 3.40 1.95 6.30 3.55 6.40 3.55 0.05 0 0.15 -9 0.15 -20.05 0 -15.95 0.15 -20 0.65 -19.85 0.35 0.10 4.40 2.30 9 4.90 l8.35 4.75 0 51.65 c0 28.35 -0.15 51.60 -0.35 51.55 -0.25 0 -3.55 -1.85 -7.40 -4.05z"/>
  <path d="M198.75 476.30 c-0.55 -0.35 -4.45 -2.50 -8.60 -4.80 l-7.65 -4.15 0 -51.90 0 -51.90 3.40 1.90 c1.85 1.05 6.40 3.60 10.10 5.65 3.70 2.05 10.45 5.85 15 8.40 4.55 2.55 10.30 5.75 12.75 7.10 2.50 1.35 5.70 3.20 7.15 4.05 l2.60 1.55 0 10.90 c0 6 -0.15 10.90 -0.30 10.90 -0.40 0 -4.45 -2.25 -19.55 -10.85 -6.90 -3.95 -12.70 -7.15 -12.85 -7.15 -0.15 0 -0.30 18.25 -0.30 40.50 0 22.30 -0.15 40.50 -0.35 40.45 -0.25 0 -0.85 -0.30 -1.40 -0.65z"/>
  <path d="M161.50 455.45 c-2.90 -1.70 -12 -6.80 -20.25 -11.45 -8.25 -4.60 -18.70 -10.45 -23.25 -13 -4.55 -2.55 -11.45 -6.45 -15.35 -8.60 l-7.15 -4 0 -10.95 c0 -6.20 0.20 -10.95 0.45 -10.95 0.25 0 2.35 1.10 4.65 2.40 4.20 2.45 18.85 10.75 31.65 17.85 3.85 2.15 9.15 5.15 11.75 6.60 2.60 1.45 4.90 2.65 5.10 2.65 0.25 0 0.40 -4.15 0.40 -9.25 0 -5.65 -0.20 -9.25 -0.50 -9.25 -0.25 0 -5.10 -2.65 -10.75 -5.85 l-10.25 -5.90 0 -10.85 c0 -7.10 0.20 -10.90 0.50 -10.90 0.30 0 1.40 0.55 2.45 1.20 1.05 0.70 6.75 3.90 12.60 7.20 5.90 3.25 13.70 7.60 17.30 9.65 l6.65 3.70 0 31.40 c0 17.25 -0.15 31.35 -0.35 31.35 -0.25 0 -2.75 -1.40 -5.65 -3.05z"/>
  <path d="M254.25 385.05 c-6.05 -3.50 -17.95 -10.25 -26.50 -15 -14.55 -8.15 -21 -11.80 -38 -21.35 l-7 -3.95 -0.15 -41.10 c-0.05 -22.65 0 -41.15 0.10 -41.15 0.10 0 1.85 1 3.85 2.15 2.05 1.20 6 3.50 8.85 5.05 l5.10 2.85 0 29.60 c0 16.30 0.20 29.85 0.40 30.15 0.20 0.30 2.50 1.75 5.10 3.20 2.60 1.45 7.35 4.15 10.50 6 3.15 1.85 9.35 5.30 13.75 7.75 4.40 2.40 9.95 5.50 12.30 6.80 2.40 1.35 4.45 2.45 4.65 2.45 0.15 0 0.30 -8.40 0.30 -18.65 0 -17.20 -0.05 -18.65 -0.85 -19.15 -0.50 -0.30 -7.20 -4.10 -14.90 -8.45 -7.70 -4.35 -14.60 -8.35 -15.35 -8.85 l-1.40 -0.95 0 -10.80 c0 -9.20 0.10 -10.70 0.75 -10.50 0.35 0.15 4.70 2.55 9.60 5.25 19.90 11.10 34.05 19.05 37.05 20.80 l3.10 1.85 0 41.20 c0 22.70 -0.05 41.25 -0.10 41.20 -0.10 -0.05 -5.10 -2.90 -11.15 -6.40z"/>
  <path d="M106.50 383.70 c-3.70 -2.10 -7.70 -4.35 -8.85 -5.05 l-2.15 -1.20 0 -81.75 c0 -70.40 0.10 -81.75 0.70 -81.55 0.70 0.25 12.55 6.85 37.55 20.85 9.25 5.20 27.35 15.50 32.35 18.45 l1.40 0.80 0 40.95 c0 38.75 -0.05 40.90 -0.85 40.55 -0.50 -0.15 -4.20 -2.20 -8.25 -4.50 -4 -2.30 -14.90 -8.45 -24.25 -13.65 -9.30 -5.20 -17.75 -9.95 -18.75 -10.60 l-1.90 -1.10 0 9.50 0 9.50 7.90 4.35 c4.30 2.40 14.15 7.95 21.85 12.25 7.70 4.35 16.30 9.15 19.15 10.70 l5.10 2.85 0 11 c0 6 -0.10 10.95 -0.20 10.95 -0.15 0 -2.60 -1.35 -5.55 -3 -6.45 -3.70 -19.35 -10.90 -31.75 -17.75 -5.10 -2.80 -10.80 -6.05 -12.75 -7.15 l-3.50 -2.05 -0.25 20.20 -0.25 20.25 -6.75 -3.80z m43 -98.65 l0 -18.95 -4.35 -2.50 c-11.95 -6.80 -31.15 -17.60 -31.40 -17.60 -0.15 0 -0.25 8.50 -0.25 18.95 l0 18.95 3.40 1.95 c1.85 1.10 6.75 3.90 10.85 6.15 4.15 2.30 10.65 5.90 14.50 8.05 3.85 2.15 7.05 3.90 7.15 3.90 0.05 0.05 0.10 -8.45 0.10 -18.90z"/>
 </g>
</svg>